<?xml version="1.0" encoding="UTF-8"?>
<!-- Generator: visioncortex VTracer 0.6.3 -->
<svg version="1.1" xmlns="http://www.w3.org/2000/svg" width="64" height="64">
<path d="M0 0 C0.66 0 1.32 0 2 0 C2.12 1 2.25 2 2.38 3.04 C3.48 11.84 3.48 11.84 8.44 18.88 C9.94 19.95 11.46 20.99 13 22 C14.62 23.22 16.24 24.45 17.85 25.68 C20.21 27.48 22.61 29.24 25 31 C23.18 34.84 21.39 37.33 18 40 C15.92 40.29 15.92 40.29 13.62 40.38 C9.52 40.57 7.81 41.64 4.94 44.56 C3.94 45.69 2.95 46.83 2 48 C-0.85 46.72 -2.1 45.89 -4.19 43.44 C-7.22 40.81 -7.64 40.75 -11.38 40.62 C-15.48 40.43 -17.19 39.36 -20.06 36.44 C-21.06 35.31 -22.05 34.17 -23 33 C-21.86 29.59 -21.06 29.02 -18.25 26.93 C-17.12 26.08 -17.12 26.08 -15.97 25.21 C-15.17 24.63 -14.38 24.04 -13.56 23.44 C-12 22.27 -10.44 21.1 -8.88 19.93 C-7.84 19.16 -7.84 19.16 -6.77 18.37 C-2.71 15.23 -2.25 12.23 -1.38 7.38 C-1.24 6.67 -1.11 5.96 -0.97 5.23 C-0.64 3.49 -0.32 1.75 0 0 Z " fill="#D4D4DF" transform="translate(31,8)"/>
<path d="M0 0 C0.33 0 0.66 0 1 0 C1.24 5.64 0.38 10.49 -1 15.94 C-1.19 16.72 -1.38 17.5 -1.58 18.3 C-2.04 20.2 -2.52 22.1 -3 24 C-10.76 24.9 -10.76 24.9 -14.16 22.44 C-15.87 20.69 -17.48 18.92 -19 17 C-17.86 13.58 -17.03 13 -14.22 10.9 C-13.46 10.33 -12.7 9.75 -11.92 9.16 C-11.12 8.57 -10.32 7.98 -9.5 7.38 C-7.93 6.2 -6.35 5.02 -4.78 3.84 C-3.73 3.06 -3.73 3.06 -2.66 2.26 C-1.06 1.1 -1.06 1.1 0 0 Z " fill="#CFCFDB" transform="translate(27,24)"/>
<path d="M0 0 C0.66 0 1.32 0 2 0 C2.53 2.6 3.05 5.21 3.56 7.81 C3.71 8.55 3.87 9.29 4.02 10.05 C5.11 15.66 5.11 15.66 4 19 C3.01 19 2.02 19 1 19 C1 28.57 1 38.14 1 48 C-6 42 -6 42 -7.01 39.49 C-7 36.53 -6.52 34.01 -5.81 31.12 C-4.24 24.33 -2.99 17.5 -1.81 10.62 C-1.63 9.58 -1.45 8.54 -1.27 7.47 C-0.84 4.98 -0.42 2.49 0 0 Z " fill="#FCFCFC" transform="translate(31,8)"/>
</svg>
