<svg xmlns="http://www.w3.org/2000/svg" width="64" height="64" viewBox="0 0 64 64" version="1.1"><path d="M 31 9.775 C 31 10.751, 27.629 21.641, 23.508 33.975 L 16.017 56.400 20.296 52.200 C 23.771 48.790, 25.273 48, 28.288 48 L 32 48 32 40 L 32 32 35.500 32 C 37.425 32, 39 31.555, 39 31.012 C 39 30.469, 37.650 25.809, 36 20.659 C 34.350 15.508, 33 10.552, 33 9.647 C 33 8.741, 32.550 8, 32 8 C 31.450 8, 31 8.799, 31 9.775" stroke="none" fill="#fafafb" fill-rule="evenodd"/><path d="M 19.052 29.089 L 7.684 48.092 11.544 52.045 C 13.666 54.218, 15.706 55.660, 16.077 55.249 C 17.057 54.159, 31.281 10.948, 30.813 10.480 C 30.596 10.263, 25.304 18.637, 19.052 29.089 M 33 10.424 C 33 10.902, 34.350 15.508, 36 20.659 C 37.650 25.809, 39 30.469, 39 31.012 C 39 31.555, 37.425 32, 35.500 32 L 32 32 32 40 L 32 48 35.712 48 C 38.730 48, 40.229 48.790, 43.726 52.222 L 48.027 56.443 52.186 52.284 L 56.345 48.126 46.013 30.813 C 34.493 11.510, 33 9.171, 33 10.424" stroke="none" fill="#d2d2df" fill-rule="evenodd"/></svg>